<svg xmlns="http://www.w3.org/2000/svg" width="1024" height="1024" viewBox="0 0 1024 1024" version="1.1"><path d="M 644.500 133.156 L 630.500 133.813 623.500 134.957 L 616.500 136.102 608.500 138.111 L 600.500 140.120 590.500 143.174 L 580.500 146.228 576.765 148.127 L 573.029 150.026 571.537 152.304 L 570.044 154.581 553.650 221.041 L 537.255 287.500 531.654 310.500 L 526.052 333.500 516.470 372.500 L 506.887 411.500 496.391 455 L 485.895 498.500 486.460 501.575 L 487.025 504.650 489.762 507.195 L 492.500 509.740 496.320 510.319 L 500.141 510.897 502.474 510.010 L 504.808 509.123 506.744 507.045 L 508.679 504.967 518.037 467.009 L 527.395 429.050 538.448 424.648 L 549.500 420.247 555 418.678 L 560.500 417.108 569.626 415.126 L 578.752 413.143 589.126 411.932 L 599.500 410.721 613 411.367 L 626.500 412.013 635.500 414.013 L 644.500 416.012 652.190 418.568 L 659.880 421.124 674.690 427.447 L 689.500 433.770 701.500 439.222 L 713.500 444.673 721 447.288 L 728.500 449.902 736 451.984 L 743.500 454.067 753.500 455.515 L 763.500 456.963 778.500 456.976 L 793.500 456.988 803 455.554 L 812.500 454.120 824.344 450.528 L 836.189 446.936 845.655 443.313 L 855.121 439.689 857.836 437.095 L 860.550 434.500 862.768 425.500 L 864.986 416.500 874.997 374.500 L 885.007 332.500 888.102 319.500 L 891.197 306.500 897.987 278 L 904.777 249.500 913.311 214 L 921.844 178.500 922.496 175.278 L 923.147 172.056 920.619 169.528 L 918.091 167 915.659 167 L 913.228 167 900.364 170.975 L 887.500 174.949 878.500 176.592 L 869.500 178.235 851.292 178.739 L 833.085 179.242 824.792 178.069 L 816.500 176.896 805.210 173.924 L 793.920 170.952 789.710 169.332 L 785.500 167.712 763.186 158.290 L 740.872 148.867 731.407 145.441 L 721.942 142.015 710.177 139.045 L 698.411 136.074 686.456 134.587 L 674.500 133.100 666.500 132.800 L 658.500 132.500 644.500 133.156 M 640.022 157.050 L 630.545 157.957 620.132 160.027 L 609.720 162.097 600.517 165.045 L 591.315 167.993 581.935 205.441 L 572.555 242.888 573.161 243.494 L 573.767 244.100 579.633 242.137 L 585.500 240.173 595 237.633 L 604.500 235.092 613 233.577 L 621.500 232.062 633.500 231.029 L 645.500 229.995 654.358 230.798 L 663.216 231.601 663.529 230.551 L 663.842 229.500 672.051 195 L 680.261 160.500 680.682 159.394 L 681.104 158.288 675.802 157.678 L 670.500 157.068 660 156.606 L 649.500 156.144 640.022 157.050 M 765.479 188.250 L 765.020 189.500 759.575 212 L 754.129 234.500 751.064 247.284 L 748 260.068 748 260.428 L 748 260.787 754.750 263.516 L 761.500 266.245 770 269.152 L 778.500 272.059 784.464 273.612 L 790.428 275.166 798.964 276.584 L 807.500 278.003 818.104 278.646 L 828.707 279.289 834.465 255.394 L 840.223 231.500 843.551 218.056 L 846.879 204.613 846.370 203.790 L 845.862 202.967 845.090 203.445 L 844.318 203.922 832.538 202.961 L 820.758 202.001 808.543 199.528 L 796.328 197.055 781.774 192.027 L 767.220 187 766.579 187 L 765.937 187 765.479 188.250 M 356.234 217.113 L 351.968 219.225 350.117 221.578 L 348.266 223.931 343.039 245.716 L 337.812 267.500 336.813 271.649 L 335.813 275.799 322.657 280.048 L 309.500 284.296 299.719 288.605 L 289.939 292.913 288.219 292.206 L 286.500 291.500 264.198 278.081 L 241.896 264.661 237.015 264.772 L 232.134 264.884 228.565 266.715 L 224.996 268.546 201.982 290.866 L 178.967 313.187 175.867 317.693 L 172.767 322.199 172.822 326.185 L 172.877 330.171 176.188 335.605 L 179.500 341.039 191.288 359.406 L 203.077 377.773 196.677 391.137 L 190.276 404.500 186.888 414.334 L 183.500 424.168 181.919 425.029 L 180.337 425.890 158.286 431.406 L 136.234 436.923 132.270 438.509 L 128.306 440.095 126.118 443.055 L 123.929 446.014 122.905 451.559 L 121.880 457.103 122.190 490.967 L 122.500 524.832 125.513 529.166 L 128.527 533.500 132.975 535.750 L 137.424 538 227.962 537.996 L 318.500 537.993 321.972 535.876 L 325.443 533.760 354.983 503.767 L 384.524 473.774 388.512 475.520 L 392.500 477.265 400.500 477.265 L 408.500 477.265 412.500 475.515 L 416.500 473.765 420.740 470.720 L 424.980 467.675 428.423 462.588 L 431.865 457.500 433.432 452.068 L 435 446.637 435 442.924 L 435 439.211 432.900 432.413 L 430.801 425.616 424.650 419.470 L 418.500 413.325 412.500 411.039 L 406.500 408.754 399.294 408.762 L 392.088 408.770 385.605 411.804 L 379.122 414.838 374.569 419.590 L 370.016 424.341 368.008 429.708 L 366 435.075 366 442.412 L 366 449.749 367.412 453.751 L 368.824 457.753 340.090 486.376 L 311.355 515 228.428 515.001 L 145.500 515.001 145.779 486.653 L 146.059 458.305 169.279 452.543 L 192.500 446.781 195.061 445.463 L 197.622 444.144 200.737 440.958 L 203.852 437.772 204.827 435.136 L 205.802 432.500 208.951 422.671 L 212.100 412.842 219.550 397.024 L 227 381.206 227 378.204 L 227 375.203 224.092 369.675 L 221.184 364.146 212.948 351.823 L 204.713 339.500 202.001 336 L 199.289 332.500 198.068 330.172 L 196.846 327.844 216.027 309.172 L 235.208 290.500 237.043 289.624 L 238.878 288.749 252.189 297.220 L 265.500 305.692 274.105 310.845 L 282.710 315.999 287.225 316.617 L 291.739 317.236 296.780 314.704 L 301.821 312.172 310.660 308.655 L 319.500 305.137 330.500 301.545 L 341.500 297.953 345.410 296.895 L 349.319 295.837 351.711 294.270 L 354.102 292.703 355.545 289.912 L 356.989 287.121 361.503 268.311 L 366.018 249.500 367.305 244 L 368.592 238.500 395.769 238.293 L 422.946 238.087 423.921 241.793 L 424.897 245.500 427.457 256.500 L 430.018 267.500 432.356 277.205 L 434.694 286.911 437.399 290.456 L 440.103 294.002 442.802 295.382 L 445.500 296.763 460.500 301.494 L 475.500 306.225 480.500 308.783 L 485.500 311.341 490.209 311.363 L 494.918 311.385 497.097 309.442 L 499.276 307.500 500.638 304.282 L 502 301.064 502 298.565 L 502 296.067 498.669 292.736 L 495.338 289.405 484.878 285.288 L 474.418 281.172 466.459 278.975 L 458.500 276.778 457.389 276.474 L 456.279 276.170 450.031 250.835 L 443.783 225.500 441.116 222.105 L 438.450 218.711 434.991 216.855 L 431.531 215 396.016 215.001 L 360.500 215.002 356.234 217.113 M 663.122 237.619 L 662.097 241.500 656.617 264 L 651.136 286.500 648.260 298.570 L 645.383 310.639 653.941 311.934 L 662.500 313.229 674.173 316.569 L 685.846 319.910 695.673 323.582 L 705.500 327.255 716.904 332.140 L 728.309 337.025 728.455 336.762 L 728.601 336.500 737.306 300 L 746.011 263.500 746.006 262.413 L 746 261.325 731.750 255.026 L 717.500 248.726 707.777 244.868 L 698.054 241.009 687.410 238.020 L 676.766 235.032 670.457 234.385 L 664.147 233.739 663.122 237.619 M 862 275.144 L 853.500 277.108 841.614 278.812 L 829.727 280.516 825.861 296.508 L 821.994 312.500 816.974 333.500 L 811.955 354.500 811.413 356.240 L 810.872 357.979 815.686 357.433 L 820.500 356.886 829 355.421 L 837.500 353.955 846.833 351.561 L 856.165 349.168 856.717 348.616 L 857.268 348.065 862.015 327.283 L 866.761 306.500 870.381 291.231 L 874 275.963 874 274.481 L 874 273 872.250 273.090 L 870.500 273.181 862 275.144 M 602 311.652 L 599.500 312.089 591.500 313.612 L 583.500 315.135 575 317.627 L 566.500 320.119 559.750 322.647 L 553 325.175 552.963 325.337 L 552.926 325.500 543.628 362.750 L 534.330 400 535.100 400 L 535.870 400 538.685 398.893 L 541.500 397.785 551.500 394.885 L 561.500 391.985 575.204 389.977 L 588.908 387.968 603.959 387.940 L 619.011 387.911 622.344 388.537 L 625.678 389.162 628.798 376.331 L 631.919 363.500 638.030 338.154 L 644.141 312.808 643.490 312.154 L 642.838 311.500 623.669 311.357 L 604.500 311.215 602 311.652 M 729.485 341.250 L 729.032 342.500 722.580 369 L 716.128 395.500 713.519 406.872 L 710.911 418.244 711.205 418.465 L 711.500 418.685 722.543 422.782 L 733.586 426.879 741.543 428.916 L 749.500 430.952 758.500 432.505 L 767.500 434.057 778.722 434.223 L 789.944 434.389 790.499 433.834 L 791.055 433.279 800.054 396.500 L 809.054 359.720 L 808.777 359.514 L 808.500 359.309 797 358.104 L 785.500 356.900 778 355.370 L 770.500 353.840 758.295 349.882 L 746.089 345.923 738.907 342.962 L 731.725 340 730.831 340 L 729.937 340 729.485 341.250 M 380.500 343.088 L 372.500 343.910 363.234 346.031 L 353.968 348.151 345.760 351.147 L 337.551 354.143 328.025 359.045 L 318.500 363.948 307.887 371.928 L 297.274 379.908 288.887 388.823 L 280.500 397.738 274.836 405.619 L 269.172 413.500 264.251 423 L 259.331 432.500 256.709 439.151 L 254.088 445.802 251.045 457.151 L 248.003 468.500 248.002 471.694 L 248 474.888 250.331 477.598 L 252.661 480.307 258.189 480.766 L 263.717 481.224 266.881 478.362 L 270.044 475.500 272.981 464.500 L 275.918 453.500 278.548 447.051 L 281.178 440.601 284.989 433.023 L 288.799 425.445 295.045 416.972 L 301.290 408.500 308.895 401.067 L 316.500 393.635 325.500 387.716 L 334.500 381.797 339.310 379.351 L 344.120 376.905 351.867 374.049 L 359.614 371.193 369.256 369.104 L 378.897 367.015 390.199 366.375 L 401.500 365.735 410.500 366.909 L 419.500 368.083 428.885 370.610 L 438.270 373.136 451.490 379.068 L 464.711 385 468.220 385 L 471.730 385 474.385 382.912 L 477.040 380.823 478.560 377.884 L 480.080 374.944 479.431 371.484 L 478.782 368.024 475.875 365.182 L 472.967 362.339 462.234 357.694 L 451.500 353.049 444.500 350.568 L 437.499 348.087 430.500 346.462 L 423.500 344.838 413 343.438 L 402.500 342.039 395.500 342.153 L 388.500 342.266 380.500 343.088 M 395 432.752 L 391.500 434.500 389.647 438.293 L 387.794 442.087 388.409 445.368 L 389.025 448.650 392.078 451.575 L 395.131 454.500 400.148 454.500 L 405.164 454.500 408.028 451.294 L 410.893 448.088 411.542 444.629 L 412.191 441.170 410.845 438.372 L 409.500 435.575 406.102 433.287 L 402.704 431 400.602 431.002 L 398.500 431.003 395 432.752 M 659.604 465.038 L 656.709 465.905 653.754 468.702 L 650.800 471.500 637.107 489 L 623.413 506.500 611.877 521.500 L 600.341 536.500 592.005 547.500 L 583.669 558.500 564.633 583 L 545.598 607.500 539.350 615.500 L 533.102 623.500 519.795 640.500 L 506.489 657.500 500.017 665.882 L 493.545 674.265 493.545 678.238 L 493.545 682.212 496.328 684.606 L 499.112 687 542.164 687 L 585.217 687 584.560 689.750 L 583.904 692.500 574.877 721.500 L 565.850 750.500 556.352 780.500 L 546.854 810.500 535.349 845.841 L 523.845 881.182 523.291 884.591 L 522.738 888 523.402 888 L 524.067 888 527.283 884.737 L 530.500 881.474 537.257 872.987 L 544.015 864.500 562.267 841 L 580.519 817.500 590.076 805 L 599.632 792.500 607.641 782 L 615.649 771.500 630.616 752 L 645.583 732.500 674.599 695 L 703.616 657.500 716.195 640.902 L 728.774 624.304 729.428 621.326 L 730.083 618.347 729.089 615.735 L 728.096 613.122 726.298 612.181 L 724.500 611.240 682.718 610.788 L 640.935 610.335 640.006 609.406 L 639.076 608.476 644.990 586.488 L 650.903 564.500 651.894 561.500 L 652.885 558.500 658.530 537.500 L 664.176 516.500 669.588 497.275 L 675 478.049 675 474.199 L 675 470.349 672.750 468.241 L 670.500 466.133 667.685 465.067 L 664.870 464 663.685 464.086 L 662.500 464.172 659.604 465.038 M 418.344 507.983 L 414.187 508.864 410.122 510.938 L 406.056 513.012 402.409 516.214 L 398.763 519.415 396.310 523.302 L 393.856 527.188 392.496 533.689 L 391.136 540.190 391.986 545.345 L 392.835 550.500 393.864 553.174 L 394.893 555.848 387.443 562.924 L 379.994 570 293.398 570 L 206.802 570 203.651 571.556 L 200.500 573.113 191.500 583.717 L 182.500 594.320 175.819 602.687 L 169.138 611.053 167.962 614.616 L 166.786 618.179 167.402 621.259 L 168.018 624.338 171.942 629.419 L 175.866 634.500 200.683 659.109 L 225.500 683.718 228.700 685.359 L 231.901 687 236.577 687 L 241.252 687 250.876 681.820 L 260.500 676.640 270.500 670.685 L 280.500 664.729 281.500 664.756 L 282.500 664.783 293.760 671.286 L 305.020 677.788 315.760 682.045 L 326.500 686.303 327.339 687.041 L 328.179 687.779 334.132 711.139 L 340.086 734.500 342.164 738.816 L 344.242 743.132 348.296 745.816 L 352.351 748.500 390.425 748.799 L 428.500 749.099 431.810 748.493 L 435.119 747.887 439 744.381 L 442.881 740.875 444.402 736.187 L 445.924 731.500 451.056 711 L 456.187 690.500 455.344 687.096 L 454.500 683.692 451.807 681.693 L 449.114 679.694 444.709 679.597 L 440.304 679.500 437.821 680.828 L 435.339 682.157 433.679 684.966 L 432.020 687.775 430.521 694.638 L 429.022 701.500 426.220 713.500 L 423.417 725.500 392.627 725.500 L 361.836 725.500 355.586 701 L 349.336 676.500 347.683 673.329 L 346.030 670.158 343.265 668.218 L 340.500 666.278 330.759 662.651 L 321.017 659.024 309.215 653.108 L 297.413 647.192 292.174 644.102 L 286.934 641.013 283.165 640.410 L 279.396 639.808 275.601 641.393 L 271.807 642.979 254.790 653.096 L 237.773 663.213 232.137 657.787 L 226.500 652.361 209.286 635.543 L 192.071 618.725 194.125 616.112 L 196.179 613.500 205.304 602.750 L 214.428 592 300.964 591.955 L 387.500 591.910 390.233 590.705 L 392.966 589.500 401.828 580.749 L 410.690 571.999 413.707 573.504 L 416.724 575.009 421.243 575.853 L 425.763 576.697 431.131 575.968 L 436.500 575.238 440.229 573.679 L 443.958 572.120 449.079 567.330 L 454.200 562.540 456.644 557.717 L 459.088 552.894 460.133 547.239 L 461.178 541.584 459.994 535.566 L 458.811 529.549 456.913 525.830 L 455.016 522.111 450.047 517.142 L 445.077 512.173 439.430 510.060 L 433.782 507.947 428.141 507.525 L 422.500 507.103 418.344 507.983 M 420 532.200 L 416.500 534.560 415.190 538.668 L 413.880 542.777 415.380 546.367 L 416.880 549.956 420.190 552.026 L 423.500 554.096 426.856 553.594 L 430.212 553.091 432.689 551.468 L 435.167 549.844 436.681 546.220 L 438.196 542.596 437.115 538.988 L 436.034 535.380 433.756 533.240 L 431.478 531.100 427.489 530.470 L 423.500 529.840 420 532.200 M 708.314 533.950 L 705.128 535.893 704.064 537.881 L 703 539.869 703 543.534 L 703 547.200 706.400 550.600 L 709.800 554 760.823 554 L 811.847 554 814.889 551.440 L 817.932 548.879 818.580 545.423 L 819.229 541.967 817.944 538.865 L 816.659 535.763 813.580 533.885 L 810.500 532.007 761 532.007 L 711.500 532.007 708.314 533.950 M 459.864 620.398 L 445.227 627.738 430.864 632.363 L 416.500 636.987 412.060 638.083 L 407.621 639.179 404.310 642.490 L 401 645.800 401 650 L 401 654.200 404.400 657.600 L 407.800 661 412.150 660.989 L 416.500 660.977 430.493 656.943 L 444.486 652.908 456.493 647.674 L 468.500 642.441 476.591 637.624 L 484.683 632.807 486.341 629.999 L 488 627.191 488 624.046 L 488 620.901 486.490 617.980 L 484.979 615.059 483.055 614.030 L 481.131 613 477.816 613.029 L 474.500 613.059 459.864 620.398 M 755.400 639.400 L 752 642.800 752 647 L 752 651.200 755.400 654.600 L 758.800 658 799.950 658 L 841.099 658 844.020 656.490 L 846.941 654.979 847.970 653.055 L 849 651.131 849 646.489 L 849 641.846 846.077 638.923 L 843.154 636 800.977 636 L 758.800 636 755.400 639.400 M 694.500 738.668 L 692.500 739.103 690.165 740.266 L 687.829 741.429 686.415 744.165 L 685 746.901 685 750.435 L 685 753.968 687.917 757.234 L 690.834 760.500 733.133 760.782 L 775.431 761.064 778.250 759.897 L 781.068 758.729 783.034 756.230 L 785 753.730 785 749.039 L 785 744.349 782.494 741.994 L 779.988 739.640 774.744 738.893 L 769.500 738.146 733 738.189 L 696.500 738.232 694.500 738.668" stroke="none" fill="#35eec4" fill-rule="evenodd"/></svg>